<svg xmlns="http://www.w3.org/2000/svg" width="42" height="39.9" viewBox="0 0 42 39.9">
  <path id="briefcase-account" d="M39.8,10.4H31.4V6.2A4.2,4.2,0,0,0,27.2,2H18.8a4.185,4.185,0,0,0-4.2,4.2v4.2H6.2A4.185,4.185,0,0,0,2,14.6V37.7a4.2,4.2,0,0,0,4.2,4.2H39.8A4.2,4.2,0,0,0,44,37.7V14.6a4.2,4.2,0,0,0-4.2-4.2m-21-4.2h8.4v4.2H18.8V6.2M23,16.7a5.25,5.25,0,1,1-5.25,5.25A5.25,5.25,0,0,1,23,16.7m10.5,21h-21V35.075c0-2.9,4.7-5.25,10.5-5.25s10.5,2.352,10.5,5.25Z" transform="translate(-2 -2)" fill="#80aaff"/>
</svg>
