<svg xmlns="http://www.w3.org/2000/svg" width="12" height="12.002" viewBox="0 0 12 12.002">
  <path id="icon" d="M0,12v-.6L0,8.872A2.423,2.423,0,0,1,.8,7.256L7.617.435a1.474,1.474,0,0,1,2.09,0l1.86,1.86A1.487,1.487,0,0,1,12,3.339a1.468,1.468,0,0,1-.433,1.045L4.775,11.174A2.442,2.442,0,0,1,3.081,12ZM1.618,8.13a1.239,1.239,0,0,0-.418.791V10.8H3.039a1.246,1.246,0,0,0,.858-.446L8.434,5.82,6.181,3.567ZM9.283,4.971l1.436-1.436a.277.277,0,0,0,0-.392L8.857,1.281a.273.273,0,0,0-.388,0L7.03,2.719Z" fill="#0a5bff"/>
</svg>
