<svg xmlns="http://www.w3.org/2000/svg" width="23.997" height="24" viewBox="0 0 23.997 24">
  <path id="icon" d="M0,24V22.8l0-5.058A4.846,4.846,0,0,1,1.592,14.51L15.233.869a2.947,2.947,0,0,1,4.179,0l3.72,3.72A2.974,2.974,0,0,1,24,6.677a2.935,2.935,0,0,1-.865,2.09L9.548,22.346A4.882,4.882,0,0,1,6.161,24Zm3.235-7.743A2.478,2.478,0,0,0,2.4,17.839V21.6l3.677,0a2.492,2.492,0,0,0,1.716-.891l9.074-9.074-4.5-4.5ZM18.563,9.941l2.872-2.872a.554.554,0,0,0,0-.783L17.711,2.561a.546.546,0,0,0-.776,0L14.058,5.437Z" fill="#fff"/>
</svg>
