<svg id="error-404" xmlns="http://www.w3.org/2000/svg" width="64.788" height="64.535" viewBox="0 0 64.788 64.535">
  <path id="Path_10059" data-name="Path 10059" d="M332.9,121.388h5.694v5.694a1.9,1.9,0,0,0,3.8,0V111.9a1.9,1.9,0,0,0-3.8,0v5.694h-3.8V111.9a1.9,1.9,0,1,0-3.8,0v7.592A1.9,1.9,0,0,0,332.9,121.388Zm0,0" transform="translate(-289.116 -96.081)"/>
  <path id="Path_10060" data-name="Path 10060" d="M92.9,121.388h5.694v5.694a1.9,1.9,0,0,0,3.8,0V111.9a1.9,1.9,0,1,0-3.8,0v5.694H94.8V111.9a1.9,1.9,0,1,0-3.8,0v7.592A1.9,1.9,0,0,0,92.9,121.388Zm0,0" transform="translate(-79.485 -96.081)"/>
  <path id="Path_10061" data-name="Path 10061" d="M215.429,128.981h2.531a4.434,4.434,0,0,0,4.429-4.429V114.429A4.434,4.434,0,0,0,217.96,110h-2.531A4.434,4.434,0,0,0,211,114.429v10.123A4.434,4.434,0,0,0,215.429,128.981Zm-.633-14.552a.633.633,0,0,1,.633-.633h2.531a.633.633,0,0,1,.633.633v10.123a.633.633,0,0,1-.633.633h-2.531a.633.633,0,0,1-.633-.633Zm0,0" transform="translate(-184.3 -96.081)"/>
  <path id="Path_10062" data-name="Path 10062" d="M57.828,0H6.96A6.967,6.967,0,0,0,0,6.96V42.39a6.967,6.967,0,0,0,6.96,6.96H23.433l-1.265,3.8H21.005a5.7,5.7,0,0,0-5.694,5.694v3.8a1.9,1.9,0,0,0,1.9,1.9H47.579a1.9,1.9,0,0,0,1.9-1.9v-3.8a5.7,5.7,0,0,0-5.694-5.694H42.62l-1.265-3.8H57.828a6.967,6.967,0,0,0,6.96-6.96V6.96A6.967,6.967,0,0,0,57.828,0ZM6.96,3.8H57.828A3.167,3.167,0,0,1,60.992,6.96v31H3.8v-31A3.167,3.167,0,0,1,6.96,3.8ZM45.68,58.84v1.9H19.107v-1.9a1.9,1.9,0,0,1,1.9-1.9H43.782A1.9,1.9,0,0,1,45.68,58.84Zm-7.062-5.694H26.17l1.265-3.8h9.917ZM60.992,42.39a3.167,3.167,0,0,1-3.163,3.163H6.96A3.167,3.167,0,0,1,3.8,42.39v-.633h57.2Zm0,0"/>
</svg>
