<?xml version="1.0" encoding="utf-8"?>
<svg xmlns="http://www.w3.org/2000/svg" xmlns:xlink="http://www.w3.org/1999/xlink" style="margin: auto; background: rgb(255, 255, 255) none repeat scroll 0% 0%; display: block; shape-rendering: auto;" width="307px" height="307px" viewBox="0 0 100 100" preserveAspectRatio="xMidYMid">
<g transform="rotate(0 50 50)">
  <rect x="48" y="29" rx="2" ry="4.2" width="4" height="10" fill="#4f4f4f">
    <animate attributeName="opacity" values="1;0" keyTimes="0;1" dur="0.47393364928909953s" begin="-0.43084877208099964s" repeatCount="indefinite"></animate>
  </rect>
</g><g transform="rotate(32.72727272727273 50 50)">
  <rect x="48" y="29" rx="2" ry="4.2" width="4" height="10" fill="#4f4f4f">
    <animate attributeName="opacity" values="1;0" keyTimes="0;1" dur="0.47393364928909953s" begin="-0.38776389487289964s" repeatCount="indefinite"></animate>
  </rect>
</g><g transform="rotate(65.45454545454545 50 50)">
  <rect x="48" y="29" rx="2" ry="4.2" width="4" height="10" fill="#4f4f4f">
    <animate attributeName="opacity" values="1;0" keyTimes="0;1" dur="0.47393364928909953s" begin="-0.3446790176647997s" repeatCount="indefinite"></animate>
  </rect>
</g><g transform="rotate(98.18181818181819 50 50)">
  <rect x="48" y="29" rx="2" ry="4.2" width="4" height="10" fill="#4f4f4f">
    <animate attributeName="opacity" values="1;0" keyTimes="0;1" dur="0.47393364928909953s" begin="-0.30159414045669974s" repeatCount="indefinite"></animate>
  </rect>
</g><g transform="rotate(130.9090909090909 50 50)">
  <rect x="48" y="29" rx="2" ry="4.2" width="4" height="10" fill="#4f4f4f">
    <animate attributeName="opacity" values="1;0" keyTimes="0;1" dur="0.47393364928909953s" begin="-0.2585092632485998s" repeatCount="indefinite"></animate>
  </rect>
</g><g transform="rotate(163.63636363636363 50 50)">
  <rect x="48" y="29" rx="2" ry="4.2" width="4" height="10" fill="#4f4f4f">
    <animate attributeName="opacity" values="1;0" keyTimes="0;1" dur="0.47393364928909953s" begin="-0.21542438604049982s" repeatCount="indefinite"></animate>
  </rect>
</g><g transform="rotate(196.36363636363637 50 50)">
  <rect x="48" y="29" rx="2" ry="4.2" width="4" height="10" fill="#4f4f4f">
    <animate attributeName="opacity" values="1;0" keyTimes="0;1" dur="0.47393364928909953s" begin="-0.17233950883239985s" repeatCount="indefinite"></animate>
  </rect>
</g><g transform="rotate(229.0909090909091 50 50)">
  <rect x="48" y="29" rx="2" ry="4.2" width="4" height="10" fill="#4f4f4f">
    <animate attributeName="opacity" values="1;0" keyTimes="0;1" dur="0.47393364928909953s" begin="-0.1292546316242999s" repeatCount="indefinite"></animate>
  </rect>
</g><g transform="rotate(261.8181818181818 50 50)">
  <rect x="48" y="29" rx="2" ry="4.2" width="4" height="10" fill="#4f4f4f">
    <animate attributeName="opacity" values="1;0" keyTimes="0;1" dur="0.47393364928909953s" begin="-0.08616975441619992s" repeatCount="indefinite"></animate>
  </rect>
</g><g transform="rotate(294.54545454545456 50 50)">
  <rect x="48" y="29" rx="2" ry="4.2" width="4" height="10" fill="#4f4f4f">
    <animate attributeName="opacity" values="1;0" keyTimes="0;1" dur="0.47393364928909953s" begin="-0.04308487720809996s" repeatCount="indefinite"></animate>
  </rect>
</g><g transform="rotate(327.27272727272725 50 50)">
  <rect x="48" y="29" rx="2" ry="4.2" width="4" height="10" fill="#4f4f4f">
    <animate attributeName="opacity" values="1;0" keyTimes="0;1" dur="0.47393364928909953s" begin="0s" repeatCount="indefinite"></animate>
  </rect>
</g>
<!-- [ldio] generated by https://loading.io/ --></svg>