<svg xmlns="http://www.w3.org/2000/svg" width="24" height="29.77" viewBox="0 0 24 29.77">
  <path id="icon" d="M12,29.77h0L11.123,29C3.638,22.469,0,16.907,0,12A11.9,11.9,0,0,1,3.548,3.376,12.024,12.024,0,0,1,12,0a12.024,12.024,0,0,1,8.452,3.376A11.9,11.9,0,0,1,24,12c0,4.907-3.638,10.469-11.123,17L12,29.768Zm0-27.1A9.129,9.129,0,0,0,2.666,12c0,3.853,3.14,8.636,9.334,14.218C18.193,20.637,21.334,15.853,21.334,12A9.129,9.129,0,0,0,12,2.666Zm0,16A6.667,6.667,0,1,1,18.667,12,6.675,6.675,0,0,1,12,18.667ZM12,8a4,4,0,1,0,4,4A4,4,0,0,0,12,8Z" fill="#80aaff"/>
</svg>
