<svg xmlns="http://www.w3.org/2000/svg" width="64.013" height="64.013" viewBox="0 0 64.013 64.013">
  <g id="settings" transform="translate(0 0)">
    <circle id="Ellipse_25" data-name="Ellipse 25" cx="1.875" cy="1.875" r="1.875" transform="translate(8.902 51.359)"/>
    <path id="Path_10063" data-name="Path 10063" d="M50.784,30.82A15.5,15.5,0,0,0,62.674,9.189a1.876,1.876,0,0,0-3.039-.563l-7.683,7.682a.814.814,0,0,1-1.15,0l-3.1-3.1a.813.813,0,0,1,0-1.148l7.684-7.683a1.876,1.876,0,0,0-.563-3.039,15.5,15.5,0,0,0-20.7,19.883l-5.626,4.621L15.931,13.282l2.21-2.21a1.876,1.876,0,0,0-.162-2.8L9.476,1.54a1.876,1.876,0,0,0-2.491.144l-5.3,5.3a1.875,1.875,0,0,0-.144,2.49l6.735,8.5a1.876,1.876,0,0,0,2.8.162l2.21-2.21,12.3,12.3L2.488,47.206a6.559,6.559,0,0,0-.569,9.778l5.109,5.108a6.559,6.559,0,0,0,9.778-.569l18.97-23.093,1.906,1.906-2.741,2.741a1.875,1.875,0,0,0-.07,2.578L49.162,61.588a7.329,7.329,0,0,0,10.631.277l2.07-2.07a7.337,7.337,0,0,0-.311-10.662l0,0L45.543,34.966a1.876,1.876,0,0,0-2.569.078l-2.64,2.64-2.166-2.166,4.621-5.626a15.415,15.415,0,0,0,7.994.927ZM9.905,14,5.514,8.46,8.456,5.518,14,9.908ZM44.379,38.944,59.061,51.936a3.581,3.581,0,0,1,.151,5.207l-2.07,2.07a3.58,3.58,0,0,1-5.189-.132l-13.1-14.607ZM40.807,26.4l-6.62,8.059,0,0L13.9,59.157l-.026.032a2.8,2.8,0,0,1-4.19.251L4.572,54.332a2.8,2.8,0,0,1,.251-4.19l.032-.026,24.7-20.288,0,0,8.059-6.62a1.875,1.875,0,0,0,.475-2.312A11.764,11.764,0,0,1,50.533,3.929L45.052,9.41a4.568,4.568,0,0,0,0,6.452l3.1,3.1a4.569,4.569,0,0,0,6.454,0l5.48-5.48A11.827,11.827,0,0,1,56.822,23.8a11.7,11.7,0,0,1-13.7,2.128,1.875,1.875,0,0,0-2.312.474Z"/>
  </g>
</svg>
