<svg id="icons_gps" data-name="icons/gps" xmlns="http://www.w3.org/2000/svg" width="36" height="36" viewBox="0 0 36 36">
  <rect id="bg" width="36" height="36" fill="none"/>
  <path id="path" d="M29.636,18.864A12.18,12.18,0,0,1,18.864,29.636v1.5a1.364,1.364,0,0,1-2.727,0v-1.5A11.932,11.932,0,0,1,5.364,18.864h-1.5a1.364,1.364,0,1,1,0-2.727h1.5A11.932,11.932,0,0,1,16.136,5.364v-1.5a1.364,1.364,0,1,1,2.727,0v1.5A12.18,12.18,0,0,1,29.636,16.136h1.5a1.364,1.364,0,0,1,0,2.727ZM17.5,27.045A9.545,9.545,0,1,0,7.955,17.5,9.487,9.487,0,0,0,17.5,27.045Zm0-4.091A5.455,5.455,0,1,1,22.955,17.5,5.471,5.471,0,0,1,17.5,22.955Zm0-2.727A2.727,2.727,0,1,0,14.773,17.5,2.735,2.735,0,0,0,17.5,20.227Z" transform="translate(0.5 0.5)" fill="#fff"/>
</svg>
